<svg width="74" height="35" viewBox="0 0 74 35" fill="none" xmlns="http://www.w3.org/2000/svg">
<g clip-path="url(#clip0_22_363)">
<path d="M70.2044 33.9576L59.2408 0.0297204L59.2333 0.00726318H59.0169L56.7593 6.97932L52.6491 19.6721L52.6395 19.6621C51.215 18.2493 49.2052 17.3661 46.6741 17.0372L45.9021 16.9477L46.668 16.8373C50.842 15.9942 53.6478 13.0312 53.6478 9.46134C53.6478 4.566 49.5514 1.14909 43.6835 1.14909H31.4746V1.39695H35.0221V26.6921L26.4064 0.0296372L26.3986 0.00726318H26.1822L23.9245 6.97932L15.2166 33.8703L15.163 33.8773C15.0142 33.8979 14.867 33.9143 14.7214 33.9267C14.5024 33.946 14.2846 33.9575 14.0661 33.9575H5.26754L21.9925 1.39687L22.1168 1.15217H1.66152V11.2246H1.87856C1.91704 6.31849 4.45909 1.39687 10.0755 1.39687H16.8514L0 34.2015H22.702V24.5513H22.485C22.4554 28.8275 20.2987 32.8891 15.6089 33.8062L15.4598 33.8348L19.0315 22.8004H29.0369L32.6421 33.9576H29.0857V34.2016H43.0447V33.9576H39.473V17.1276H43.5942C47.7882 17.1276 50.1935 19.2336 50.1935 22.9037V25.8891C50.1935 26.2181 50.2134 26.699 50.2354 27.1012V27.1159L48.0203 33.956H45.1265V34.2H51.1166V33.956H48.2539L50.2712 27.7274C50.2753 27.7876 50.2774 27.8239 50.2774 27.8239L50.333 28.3851L50.3866 28.7564C50.7232 31.0532 51.5047 32.7416 52.7089 33.7745L52.882 33.9158C53.7968 34.6307 54.9336 34.9928 56.2626 34.9928C58.0231 34.9928 59.1969 34.4995 60.1661 33.3384L60.039 33.204C59.1461 34.1304 58.3967 34.5057 57.4578 34.5057C55.8581 34.5057 55.0209 32.3247 55.0209 30.1739V25.991C55.0294 24.9532 54.8848 23.9209 54.5929 22.9362L54.5531 22.8065V22.8018H61.8714L65.4767 33.9591H61.9202V34.203H74V33.9591L70.2044 33.9576ZM19.1111 22.5564L24.04 7.33605L28.9579 22.5564H19.1111ZM39.4752 16.8828V1.39687H42.6209C46.8231 1.39687 49.0416 4.20468 49.0416 9.51391C49.0416 15.1604 47.7682 16.8828 43.5942 16.8828H39.4752ZM54.4678 22.5564L54.4465 22.4962C54.1213 21.6059 53.6478 20.7936 53.0515 20.1029L52.8455 19.8713L52.8235 19.8481L56.8718 7.33605L61.7897 22.5564H54.4678Z" fill="white"/>
</g>
<defs>
<clipPath id="clip0_22_363">
<rect width="74" height="35" fill="white"/>
</clipPath>
</defs>
</svg>
